<svg width="27" height="33" viewBox="0 0 27 33" fill="none" xmlns="http://www.w3.org/2000/svg">
<path d="M13.5 13.25C16.4167 13.25 17.875 17.1825 15.8188 19.49C13.7479 21.7975 10.2188 20.1562 10.2188 16.9062C10.2188 14.875 11.6771 13.25 13.5 13.25ZM20.0625 27.875H6.9375V26.055C6.9375 24.0237 9.85417 22.3988 13.5 22.3988C17.1458 22.3988 20.0625 24.0237 20.0625 26.055V27.875ZM23.7083 29.5H3.29167V11.625H23.7083V29.5ZM19.3333 0.25V3.5H7.66667V0.25H4.75V3.5H3.29167C2.51812 3.5 1.77625 3.84241 1.22927 4.4519C0.682291 5.0614 0.375 5.88805 0.375 6.75V29.5C0.375 30.362 0.682291 31.1886 1.22927 31.7981C1.77625 32.4076 2.51812 32.75 3.29167 32.75H23.7083C24.4819 32.75 25.2237 32.4076 25.7707 31.7981C26.3177 31.1886 26.625 30.362 26.625 29.5V6.75C26.625 5.88805 26.3177 5.0614 25.7707 4.4519C25.2237 3.84241 24.4819 3.5 23.7083 3.5H22.25V0.25H19.3333Z" fill="#2C366A"/>
</svg>
