<svg width="33" height="27" viewBox="0 0 33 27" fill="none" xmlns="http://www.w3.org/2000/svg">
<path d="M28.875 7.5V6L24.75 9L20.625 6V7.5L24.75 10.5L28.875 7.5ZM30.25 0H2.75C2.02065 0 1.32118 0.31607 0.805456 0.87868C0.289731 1.44129 0 2.20435 0 3L0 24C0 24.7956 0.289731 25.5587 0.805456 26.1213C1.32118 26.6839 2.02065 27 2.75 27H30.25C30.9793 27 31.6788 26.6839 32.1945 26.1213C32.7103 25.5587 33 24.7956 33 24V3C33 2.20435 32.7103 1.44129 32.1945 0.87868C31.6788 0.31607 30.9793 0 30.25 0ZM11 4.5C12.094 4.5 13.1432 4.97411 13.9168 5.81802C14.6904 6.66193 15.125 7.80653 15.125 9C15.125 10.1935 14.6904 11.3381 13.9168 12.182C13.1432 13.0259 12.094 13.5 11 13.5C9.90598 13.5 8.85677 13.0259 8.08318 12.182C7.3096 11.3381 6.875 10.1935 6.875 9C6.875 7.80653 7.3096 6.66193 8.08318 5.81802C8.85677 4.97411 9.90598 4.5 11 4.5V4.5ZM19.25 22.5H2.75V21C2.75 18 8.25 16.35 11 16.35C13.75 16.35 19.25 18 19.25 21V22.5ZM30.25 13.5H19.25V4.5H30.25" fill="#2C366A"/>
</svg>
