<svg width="38" height="38" viewBox="0 0 38 38" fill="none" xmlns="http://www.w3.org/2000/svg">
<rect opacity="0.1" width="38" height="38" rx="19" fill="#34AA44"/>
<path fill-rule="evenodd" clip-rule="evenodd" d="M23.8262 14.0762C24.0536 13.8508 24.3606 13.7239 24.6808 13.723C25.0011 13.7221 25.3088 13.8473 25.5374 14.0715C25.7661 14.2957 25.8973 14.6008 25.9028 14.921C25.9082 15.2412 25.7875 15.5506 25.5666 15.7825L19.0796 23.8912C18.9681 24.0113 18.8335 24.1077 18.6839 24.1746C18.5344 24.2415 18.3728 24.2775 18.209 24.2805C18.0452 24.2836 17.8824 24.2535 17.7304 24.1922C17.5785 24.1309 17.4404 24.0396 17.3246 23.9237L13.0265 19.624C12.9067 19.5124 12.8107 19.3778 12.7441 19.2283C12.6774 19.0788 12.6416 18.9175 12.6387 18.7538C12.6359 18.5902 12.666 18.4276 12.7273 18.2759C12.7885 18.1241 12.8798 17.9863 12.9955 17.8705C13.1112 17.7548 13.2491 17.6636 13.4009 17.6023C13.5526 17.541 13.7152 17.5109 13.8788 17.5138C14.0424 17.5166 14.2038 17.5525 14.3533 17.6191C14.5028 17.6857 14.6374 17.7817 14.749 17.9015L18.1517 21.3026L23.7953 14.112C23.8054 14.0994 23.8162 14.0874 23.8278 14.0762H23.8262Z" fill="#34AA44"/>
</svg>
