<svg width="33" height="27" viewBox="0 0 33 27" fill="none" xmlns="http://www.w3.org/2000/svg">
<path d="M20.875 13.5C24.0967 13.5 26.7084 10.5899 26.7084 7C26.7084 3.41015 24.0967 0.5 20.875 0.5C17.6534 0.5 15.0417 3.41015 15.0417 7C15.0417 10.5899 17.6534 13.5 20.875 13.5Z" fill="#2C366A"/>
<path d="M20.875 26.5C20.875 26.5 32.5417 26.5 32.5417 23.25C32.5417 19.35 26.8542 15.125 20.875 15.125C14.8958 15.125 9.20834 19.35 9.20834 23.25C9.20834 26.5 20.875 26.5 20.875 26.5ZM7.75001 10.25V5.375H4.83334V10.25H0.458344V13.5H4.83334V18.375H7.75001V13.5H12.125V10.25H7.75001Z" fill="#2C366A"/>
</svg>
