<svg width="27" height="31" viewBox="0 0 27 31" fill="none" xmlns="http://www.w3.org/2000/svg">
<path d="M13.5 13.9583C11.8645 13.9583 10.296 13.3086 9.13949 12.1522C7.98301 10.9957 7.33331 9.42717 7.33331 7.79167C7.33331 6.15617 7.98301 4.58765 9.13949 3.43117C10.296 2.2747 11.8645 1.625 13.5 1.625C15.1355 1.625 16.704 2.2747 17.8605 3.43117C19.0169 4.58765 19.6666 6.15617 19.6666 7.79167C19.6666 9.42717 19.0169 10.9957 17.8605 12.1522C16.704 13.3086 15.1355 13.9583 13.5 13.9583Z" stroke="#313967" stroke-width="2" stroke-linecap="round"/>
<path d="M1.16666 29.3752V27.8335C1.16666 25.3802 2.14121 23.0275 3.87592 21.2928C5.61063 19.558 7.9634 18.5835 10.4167 18.5835H16.5833C19.0366 18.5835 21.3893 19.558 23.1241 21.2928C24.8588 23.0275 25.8333 25.3802 25.8333 27.8335V29.3752" stroke="#313967" stroke-width="2" stroke-linecap="round"/>
</svg>
