<svg width="32" height="24" viewBox="0 0 32 24" fill="none" xmlns="http://www.w3.org/2000/svg">
<path d="M16 0C17.2377 0 18.4247 0.610343 19.2998 1.69676C20.175 2.78318 20.6667 4.25668 20.6667 5.7931C20.6667 7.32953 20.175 8.80303 19.2998 9.88945C18.4247 10.9759 17.2377 11.5862 16 11.5862C14.7623 11.5862 13.5753 10.9759 12.7002 9.88945C11.825 8.80303 11.3333 7.32953 11.3333 5.7931C11.3333 4.25668 11.825 2.78318 12.7002 1.69676C13.5753 0.610343 14.7623 0 16 0V0ZM6.66667 4.13793C7.41333 4.13793 8.10667 4.38621 8.70667 4.8331C8.50667 7.2 9.06667 9.55035 10.2133 11.3876C9.54667 12.9766 8.21333 14.069 6.66667 14.069C5.6058 14.069 4.58839 13.5458 3.83824 12.6146C3.08809 11.6834 2.66667 10.4204 2.66667 9.10345C2.66667 7.78651 3.08809 6.52351 3.83824 5.5923C4.58839 4.66108 5.6058 4.13793 6.66667 4.13793V4.13793ZM25.3333 4.13793C26.3942 4.13793 27.4116 4.66108 28.1618 5.5923C28.9119 6.52351 29.3333 7.78651 29.3333 9.10345C29.3333 10.4204 28.9119 11.6834 28.1618 12.6146C27.4116 13.5458 26.3942 14.069 25.3333 14.069C23.7867 14.069 22.4533 12.9766 21.7867 11.3876C22.9492 9.52456 23.4888 7.17715 23.2933 4.8331C23.8933 4.38621 24.5867 4.13793 25.3333 4.13793V4.13793ZM7.33333 21.1034C7.33333 17.6772 11.2133 14.8966 16 14.8966C20.7867 14.8966 24.6667 17.6772 24.6667 21.1034V24H7.33333V21.1034ZM0 24V21.5172C0 19.2166 2.52 17.28 5.93333 16.7172C5.14667 17.8428 4.66667 19.3986 4.66667 21.1034V24H0ZM32 24H27.3333V21.1034C27.3333 19.3986 26.8533 17.8428 26.0667 16.7172C29.48 17.28 32 19.2166 32 21.5172V24Z" fill="#2C366A"/>
</svg>
